#!OML:ASF H:\Dans Jumps\Project 1\Capture day 1\Session 1\subject.ASF
:FULLY-SPECIFIED
:DEGREES
222
root 0.75607 17.5303 -14.1675 7.65486 -0.3444 -1.66645
lowerback -1.58341 -0.826223 0.377165
upperback 3.55316 -1.19577 1.90723
thorax 4.58579 -0.61908 1.6921
lowerneck -13.9515 0.389942 -2.03042
upperneck 29.111 1.25171 -0.504764
head 11.8303 0.268315 0.337717
rclavicle -5.36719e-015 6.36111e-015
rhumerus -22.611 -18.1221 -78.8382
rradius 25.7375
rwrist 32.6809
rhand -18.3644 -26.0933
rfingers 7.12502
rthumb 7.91859 -55.925
lclavicle -5.36719e-015 6.36111e-015
lhumerus -19.4651 3.96399 85.5538
lradius 17.6881
lwrist -1.19172
lhand -24.0116 -3.07507
lfingers 7.12502
lthumb 2.46618 26.8904
rfemur -15.6756 -2.53024 19.568
rtibia 21.8675
rfoot -13.0592 -4.311
rtoes 9.86747
lfemur -15.0465 8.44669 -18.029
ltibia 19.9369
lfoot -10.587 4.83471
ltoes -9.05126
223
root 0.754596 17.5307 -14.1686 7.6617 -0.324049 -1.6605
lowerback -1.58362 -0.825383 0.379307
upperback 3.55596 -1.1948 1.90787
thorax 4.58877 -0.618546 1.6916
lowerneck -13.9492 0.399491 -2.02817
upperneck 29.1361 1.26471 -0.502755
head 11.8396 0.274396 0.33998
rclavicle 0 -3.18055e-015
rhumerus -22.6049 -18.1736 -78.8083
rradius 25.6982
rwrist 32.7343
rhand -18.3827 -26.0684
rfingers 7.12502
rthumb 7.90094 -55.9008
lclavicle 0 -3.18055e-015
lhumerus -19.4559 3.95406 85.5815
lradius 17.7011
lwrist -1.19069
lhand -24.0055 -3.07002
lfingers 7.12502
lthumb 2.47204 26.8954
rfemur -15.6821 -2.53353 19.5678
rtibia 21.863
rfoot -13.0547 -4.32636
rtoes 9.88155
lfemur -15.0512 8.43965 -18.0309
ltibia 19.9163
lfoot -10.5785 4.81578
ltoes -9.02558
224
root 0.753186 17.5311 -14.1695 7.6672 -0.304789 -1.65281
lowerback -1.58438 -0.824236 0.379594
upperback 3.55928 -1.19338 1.90859
thorax 4.59264 -0.617854 1.69225
lowerneck -13.9488 0.408435 -2.02718
upperneck 29.1627 1.27696 -0.499755
head 11.8499 0.280102 0.342737
rclavicle -1.81888e-014 6.36111e-015
rhumerus -22.5971 -18.2382 -78.7738
rradius 25.6533
rwrist 32.798
rhand -18.395 -26.0446
rfingers 7.12502
rthumb 7.88911 -55.8774
lclavicle -1.81888e-014 6.36111e-015
lhumerus -19.4455 3.93628 85.6126
lradius 17.7164
lwrist -1.17489
lhand -24.0066 -3.0937
lfingers 7.12502
lthumb 2.47094 26.8717
rfemur -15.6879 -2.53754 19.565
rtibia 21.8608
rfoot -13.0529 -4.339
rtoes 9.8993
lfemur -15.0533 8.436 -18.0351
ltibia 19.8947
lfoot -10.5704 4.79554
ltoes -9.00599
225
root 0.751842 17.5314 -14.1704 7.67116 -0.284393 -1.64458
lowerback -1.58585 -0.822848 0.380999
upperback 3.56274 -1.19167 1.90883
thorax 4.59702 -0.616972 1.69177
lowerneck -13.9503 0.416232 -2.02621
upperneck 29.1919 1.28772 -0.496879
head 11.8616 0.285087 0.345259
rclavicle -9.14409e-015 -3.97569e-016
rhumerus -22.5916 -18.3144 -78.7352
rradius 25.6078
rwrist 32.8684
rhand -18.4074 -26.0191
rfingers 7.12502
rthumb 7.87718 -55.8523
lclavicle -9.14409e-015 -3.97569e-016
lhumerus -19.4376 3.90653 85.6467
lradius 17.7369
lwrist -1.14583
lhand -24.0148 -3.13677
lfingers 7.12502
lthumb 2.46309 26.8288
rfemur -15.6911 -2.54392 19.5613
rtibia 21.8586
rfoot -13.053 -4.35036
rtoes 9.91634
lfemur -15.0533 8.4305 -18.0395
ltibia 19.8738
lfoot -10.5627 4.77548
ltoes -8.98602
226
root 0.750601 17.5318 -14.171 7.67393 -0.263775 -1.63803
lowerback -1.58841 -0.821028 0.385971
upperback 3.56566 -1.18954 1.90942
thorax 4.60137 -0.615759 1.68968
lowerneck -13.9539 0.423756 -2.02412
upperneck 29.2253 1.29855 -0.496071
head 11.8754 0.289909 0.346855
rclavicle 5.26779e-015 2.38542e-015
rhumerus -22.5888 -18.3942 -78.6935
rradius 25.563
rwrist 32.9416
rhand -18.4161 -26.0003
rfingers 7.12502
rthumb 7.86875 -55.8339
lclavicle 5.26779e-015 2.38542e-015
lhumerus -19.4321 3.86489 85.6847
lradius 17.7604
lwrist -1.09713
lhand -24.0294 -3.17794
lfingers 7.12502
lthumb 2.44892 26.7877
rfemur -15.6919 -2.55383 19.5592
rtibia 21.856
rfoot -13.0535 -4.35873
rtoes 9.933
lfemur -15.0519 8.42601 -18.0423
ltibia 19.8546
lfoot -10.5565 4.75515
ltoes -8.9781
227
root 0.749436 17.5322 -14.1716 7.67698 -0.242893 -1.63231
lowerback -1.59281 -0.818316 0.393405
upperback 3.56845 -1.18633 1.90979
thorax 4.60655 -0.613916 1.686
lowerneck -13.9612 0.429886 -2.01855
upperneck 29.2623 1.30759 -0.498425
head 11.8915 0.293853 0.34645
rclavicle 7.95139e-016 -2.10712e-014
rhumerus -22.5898 -18.4721 -78.6513
rradius 25.526
rwrist 33.0076
rhand -18.415 -25.9959
rfingers 7.12502
rthumb 7.86981 -55.8294
lclavicle 7.95139e-016 -2.10712e-014
lhumerus -19.4273 3.82216 85.7236
lradius 17.7867
lwrist -1.04893
lhand -24.0438 -3.21926
lfingers 7.12502
lthumb 2.43502 26.7466
rfemur -15.6918 -2.56516 19.5579
rtibia 21.8519
rfoot -13.0533 -4.36634
rtoes 9.93935
lfemur -15.0522 8.42047 -18.0444
ltibia 19.8387
lfoot -10.5519 4.73553
ltoes -8.97299
228
root 0.748321 17.5326 -14.1721 7.67941 -0.221738 -1.62831
lowerback -1.59628 -0.814867 0.403274
upperback 3.57083 -1.18223 1.91056
thorax 4.61071 -0.611544 1.68144
lowerneck -13.9649 0.43524 -1.99793
upperneck 29.2956 1.31496 -0.512947
head 11.9056 0.297228 0.338641
rclavicle -3.97569e-016 2.5842e-014
rhumerus -22.5916 -18.5478 -78.609
rradius 25.4921
rwrist 33.0697
rhand -18.4094 -26.0081
rfingers 7.12502
rthumb 7.87525 -55.8414
lclavicle -3.97569e-016 2.5842e-014
lhumerus -19.4218 3.77411 85.7642
lradius 17.8134
lwrist -0.99471
lhand -24.062 -3.26596
lfingers 7.12502
lthumb 2.41752 26.7001
rfemur -15.6908 -2.57665 19.5585
rtibia 21.8475
rfoot -13.0525 -4.37392
rtoes 9.94497
lfemur -15.0535 8.41406 -18.0444
ltibia 19.8259
lfoot -10.5489 4.7163
ltoes -8.96606
229
root 0.747291 17.5329 -14.1725 7.68141 -0.199315 -1.62716
lowerback -1.60013 -0.811435 0.416068
upperback 3.57269 -1.17833 1.91282
thorax 4.61452 -0.609192 1.67677
lowerneck -13.964 0.439798 -1.96833
upperneck 29.3259 1.32105 -0.535644
head 11.9178 0.300043 0.326018
rclavicle 2.11706e-014 1.19271e-015
rhumerus -22.596 -18.6151 -78.5667
rradius 25.4638
rwrist 33.124
rhand -18.3994 -26.0265
rfingers 7.12502
rthumb 7.88486 -55.8595
lclavicle 2.11706e-014 1.19271e-015
lhumerus -19.4153 3.72414 85.806
lradius 17.8412
lwrist -0.936979
lhand -24.0726 -3.29663
lfingers 7.12502
lthumb 2.40721 26.6695
rfemur -15.6888 -2.5902 19.562
rtibia 21.8433
rfoot -13.0513 -4.38051
rtoes 9.94454
lfemur -15.056 8.40704 -18.0413
ltibia 19.8169
lfoot -10.5485 4.69669
ltoes -8.95224
230
root 0.746305 17.5331 -14.1732 7.68322 -0.176017 -1.62299
lowerback -1.60273 -0.80884 0.425506
upperback 3.57601 -1.17538 1.91427
thorax 4.61923 -0.607429 1.67311
lowerneck -13.9608 0.443129 -1.94261
upperneck 29.3492 1.32461 -0.553038
head 11.9266 0.302073 0.315653
rclavicle 9.93923e-015 -8.34896e-015
rhumerus -22.597 -18.6712 -78.5299
rradius 25.4412
rwrist 33.1693
rhand -18.3822 -26.0622
rfingers 7.12502
rthumb 7.90148 -55.8946
lclavicle 9.93923e-015 -8.34896e-015
lhumerus -19.4008 3.66976 85.8476
lradius 17.8653
lwrist -0.876791
lhand -24.0846 -3.32636
lfingers 7.12502
lthumb 2.39568 26.6399
rfemur -15.6881 -2.60287 19.5618
rtibia 21.8404
rfoot -13.0498 -4.38959
rtoes 9.93954
lfemur -15.0605 8.39709 -18.0417
ltibia 19.8106
lfoot -10.5482 4.67907
ltoes -8.93509
